<svg xmlns="http://www.w3.org/2000/svg" baseProfile="full" version="1.1" width="300px" height="300px" style="fill: none; width: 300px; height: 300px; stroke-width: 5;"><path d="" style="stroke-width: 10; stroke-linecap: round; stroke-linejoin: round; stroke: rgb(68, 68, 68); fill: none;"></path><path d="" style="stroke-width: 10; stroke-linecap: round; stroke-linejoin: round; stroke: rgb(119, 119, 119); fill: none;"></path><path d="M150,120 A-30,30 0 0,0 120,150 A30,30 0 0,0 150,180 M105,150 Q105,120 150,90 M105,150 Q105,180 150,210 M75,150 Q75,210 150,240 M120,210 Q45,150 150,60 M150,135 L150,135 L135,150 L150,165 M150,120 A30,30 0 0,1 180,150 A-30,30 0 0,1 150,180 M195,150 Q195,120 150,90 M195,150 Q195,180 150,210 M225,150 Q225,210 150,240 M180,210 Q255,150 150,60 M150,135 L150,135 L165,150 L150,165 " style="stroke-width: 5; stroke-linecap: round; stroke-linejoin: round; stroke: rgb(255, 255, 255); fill: none;"></path></svg>